<mxfile host="65bd71144e" compressed="false">
    <diagram id="86R6ZRfhnQo9sD8B5-7s" name="Page-1">
        <mxGraphModel dx="895" dy="864" grid="1" gridSize="10" guides="1" tooltips="1" connect="1" arrows="1" fold="1" page="1" pageScale="1" pageWidth="827" pageHeight="1169" background="#161923" math="0" shadow="0">
            <root>
                <mxCell id="0"/>
                <mxCell id="1" parent="0"/>
                <mxCell id="193" value="Modulation" style="rounded=0;whiteSpace=wrap;html=1;fontFamily=Helvetica;fontSize=14;fontColor=#333333;strokeColor=none;strokeWidth=2;fillColor=#f5f5f5;" parent="1" vertex="1">
                    <mxGeometry x="173" y="40" width="120" height="40" as="geometry"/>
                </mxCell>
                <mxCell id="194" style="edgeStyle=none;rounded=0;html=1;entryX=0;entryY=0.75;entryDx=0;entryDy=0;fontColor=#333333;strokeColor=#FFFFFF;strokeWidth=2;exitX=1;exitY=0.75;exitDx=0;exitDy=0;" parent="1" source="197" target="195" edge="1">
                    <mxGeometry relative="1" as="geometry">
                        <mxPoint x="93" y="250" as="sourcePoint"/>
                        <mxPoint x="373" y="240" as="targetPoint"/>
                    </mxGeometry>
                </mxCell>
                <mxCell id="195" value="Silencer" style="rounded=0;whiteSpace=wrap;html=1;fontFamily=Helvetica;fontSize=14;fontColor=#333333;strokeColor=none;strokeWidth=2;fillColor=#f5f5f5;" parent="1" vertex="1">
                    <mxGeometry x="333" y="160" width="120" height="120" as="geometry"/>
                </mxCell>
                <mxCell id="196" style="edgeStyle=none;rounded=0;html=1;fontColor=#333333;strokeColor=#FFFFFF;strokeWidth=2;exitX=1;exitY=0.25;exitDx=0;exitDy=0;" parent="1" source="197" edge="1">
                    <mxGeometry relative="1" as="geometry">
                        <mxPoint x="93" y="190" as="sourcePoint"/>
                        <mxPoint x="213" y="190" as="targetPoint"/>
                    </mxGeometry>
                </mxCell>
                <mxCell id="197" value="Gain/STM" style="rounded=0;whiteSpace=wrap;html=1;fontFamily=Helvetica;fontSize=14;fontColor=#333333;strokeColor=none;strokeWidth=3;fillColor=#f5f5f5;" parent="1" vertex="1">
                    <mxGeometry x="13" y="160" width="120" height="120" as="geometry"/>
                </mxCell>
                <mxCell id="199" style="edgeStyle=none;rounded=0;html=1;fontColor=#333333;strokeColor=#FFFFFF;strokeWidth=2;exitX=0.5;exitY=1;exitDx=0;exitDy=0;entryX=0.5;entryY=0;entryDx=0;entryDy=0;" parent="1" source="193" target="200" edge="1">
                    <mxGeometry relative="1" as="geometry">
                        <mxPoint x="102.99999999999977" y="200" as="sourcePoint"/>
                        <mxPoint x="233" y="170" as="targetPoint"/>
                    </mxGeometry>
                </mxCell>
                <mxCell id="200" value="" style="ellipse;whiteSpace=wrap;html=1;aspect=fixed;fillColor=#FFFFFF;" parent="1" vertex="1">
                    <mxGeometry x="213" y="170" width="40" height="40" as="geometry"/>
                </mxCell>
                <mxCell id="201" style="edgeStyle=none;rounded=0;html=1;fontColor=#333333;strokeColor=#FFFFFF;strokeWidth=2;exitX=1;exitY=0.5;exitDx=0;exitDy=0;entryX=0;entryY=0.25;entryDx=0;entryDy=0;" parent="1" source="200" target="195" edge="1">
                    <mxGeometry relative="1" as="geometry">
                        <mxPoint x="103" y="200" as="sourcePoint"/>
                        <mxPoint x="223" y="200" as="targetPoint"/>
                    </mxGeometry>
                </mxCell>
                <mxCell id="203" value="" style="endArrow=none;html=1;rounded=1;labelBackgroundColor=default;fontFamily=Helvetica;fontSize=14;fontColor=#000000;strokeColor=#333333;strokeWidth=2;shape=connector;fillColor=#f5f5f5;" parent="1" edge="1">
                    <mxGeometry width="50" height="50" relative="1" as="geometry">
                        <mxPoint x="223.00000000000034" y="200" as="sourcePoint"/>
                        <mxPoint x="243.00000000000034" y="179.9999999999999" as="targetPoint"/>
                    </mxGeometry>
                </mxCell>
                <mxCell id="204" value="" style="endArrow=none;html=1;rounded=1;labelBackgroundColor=default;fontFamily=Helvetica;fontSize=14;fontColor=#000000;strokeColor=#333333;strokeWidth=2;shape=connector;fillColor=#f5f5f5;" parent="1" edge="1">
                    <mxGeometry width="50" height="50" relative="1" as="geometry">
                        <mxPoint x="243.00000000000045" y="200" as="sourcePoint"/>
                        <mxPoint x="223.00000000000045" y="180" as="targetPoint"/>
                    </mxGeometry>
                </mxCell>
                <mxCell id="205" value="PWM" style="rounded=0;whiteSpace=wrap;html=1;fontFamily=Helvetica;fontSize=14;fontColor=#333333;strokeColor=none;strokeWidth=3;fillColor=#f5f5f5;" parent="1" vertex="1">
                    <mxGeometry x="534" y="160" width="120" height="120" as="geometry"/>
                </mxCell>
                <mxCell id="206" value="&lt;span style=&quot;font-size: 14px&quot;&gt;Intenisty&lt;/span&gt;" style="text;html=1;strokeColor=none;fillColor=none;align=center;verticalAlign=middle;whiteSpace=wrap;rounded=0;fontFamily=Helvetica;fontSize=14;fontColor=#FFFFFF;strokeWidth=2;" parent="1" vertex="1">
                    <mxGeometry x="133" y="170" width="60" height="20" as="geometry"/>
                </mxCell>
                <mxCell id="209" value="&lt;span style=&quot;font-size: 14px&quot;&gt;Phase&lt;/span&gt;" style="text;html=1;strokeColor=none;fillColor=none;align=center;verticalAlign=middle;whiteSpace=wrap;rounded=0;fontFamily=Helvetica;fontSize=14;fontColor=#FFFFFF;strokeWidth=2;" parent="1" vertex="1">
                    <mxGeometry x="133" y="230" width="50" height="20" as="geometry"/>
                </mxCell>
                <mxCell id="210" style="edgeStyle=none;rounded=0;html=1;fontColor=#333333;strokeColor=#FFFFFF;strokeWidth=2;exitX=1;exitY=0.25;exitDx=0;exitDy=0;entryX=0;entryY=0.25;entryDx=0;entryDy=0;" parent="1" source="195" target="205" edge="1">
                    <mxGeometry relative="1" as="geometry">
                        <mxPoint x="263" y="200" as="sourcePoint"/>
                        <mxPoint x="383" y="200" as="targetPoint"/>
                    </mxGeometry>
                </mxCell>
                <mxCell id="211" style="edgeStyle=none;rounded=0;html=1;fontColor=#333333;strokeColor=#FFFFFF;strokeWidth=2;exitX=1;exitY=0.75;exitDx=0;exitDy=0;entryX=0;entryY=0.75;entryDx=0;entryDy=0;" parent="1" source="195" target="205" edge="1">
                    <mxGeometry relative="1" as="geometry">
                        <mxPoint x="503" y="200" as="sourcePoint"/>
                        <mxPoint x="623" y="200" as="targetPoint"/>
                    </mxGeometry>
                </mxCell>
                <mxCell id="212" value="&lt;span style=&quot;font-size: 14px&quot;&gt;Signal&lt;/span&gt;" style="text;html=1;strokeColor=none;fillColor=none;align=center;verticalAlign=middle;whiteSpace=wrap;rounded=0;fontFamily=Helvetica;fontSize=14;fontColor=#FFFFFF;fontStyle=0" parent="1" vertex="1">
                    <mxGeometry x="734.32" y="200" width="45.68" height="40" as="geometry"/>
                </mxCell>
                <mxCell id="213" style="edgeStyle=none;rounded=0;html=1;exitX=1;exitY=0.5;exitDx=0;exitDy=0;entryX=0;entryY=0.5;entryDx=0;entryDy=0;fontColor=#333333;strokeColor=#FFFFFF;strokeWidth=2;" parent="1" source="205" target="212" edge="1">
                    <mxGeometry relative="1" as="geometry">
                        <mxPoint x="785" y="-170" as="sourcePoint"/>
                        <mxPoint x="865" y="-170" as="targetPoint"/>
                    </mxGeometry>
                </mxCell>
            </root>
        </mxGraphModel>
    </diagram>
</mxfile>